# xmcd
#
# Track frame offsets: 
#        150
#        12700
#        26297
#        40150
#        53965
#        64102
#        76357
#        86229
#        98424
#        112352
#        126760
#        141960
#        155763
#        171760
#        186502
#        199595
#        211502
#        225967
#        241082
#        253789
#
# Disc length: 3569 seconds
#
# Revision: 0
# Processed by: cddbd v1.5.2PL0 Copyright (c) Steve Scherf et al.
# Submitted via: ExactAudioCopy v0.99pb4
#
DISCID=100def14
DTITLE=Howlin' Wolf - The Blues Giant - Disc 2
DYEAR=2009
DGENRE=Blues
TTITLE0=How Many More Years?
TTITLE1=Moanin' at Midnight
TTITLE2=Wolf Is at Your Door
TTITLE3=California Boogie
TTITLE4=Look-A-Here Baby
TTITLE5=Howlin' Wolf Boogie
TTITLE6=Smile at Me
TTITLE7=Getting Old and Grey
TTITLE8=My Baby Walked Off
TTITLE9=Drinkin' C.V. Wine
TTITLE10=My Troubles and Me
TTITLE11=Everybody's in the Mood
TTITLE12=Sweet Woman
TTITLE13=Color and Kind
TTITLE14=Bluebird 
TTITLE15=Saddle My Pony
TTITLE16=Worried All the Time
TTITLE17=Decoration Day
TTITLE18=Dorothy Mae
TTITLE19=Well That's Alright
EXTD=
EXTT0=
EXTT1=
EXTT2=
EXTT3=
EXTT4=
EXTT5=
EXTT6=
EXTT7=
EXTT8=
EXTT9=
EXTT10=
EXTT11=
EXTT12=
EXTT13=
EXTT14=
EXTT15=
EXTT16=
EXTT17=
EXTT18=
EXTT19=
PLAYORDER=
